# xmcd CD database file generated by Grip 2.96
# 
# Track frame offsets:
#       150
#       19590
#       40402
#       63388
#       80011
#       103190
#       122130
#       141866
#       157996
#       176616
#       199180
#       219937
#       234361
# 
# Disc length: 3307 seconds
# 
# Revision: 0
# Processed by: cddbd v1.4PL0 Copyright (c) Steve Scherf et al.
# Submitted via: Grip 2.96
# 
DISCID=b00ce90d
DTITLE=Aaron Neville - The Tatooed Heart
DYEAR=1900
DGENRE=
TTITLE0=Can't Stop My Heart From Lovin' You (The Rain Song)
TTITLE1=Show Some Emotion
TTITLE2=Everyday of My Life
TTITLE3=Down Into Muddy Water
TTITLE4=Some Days Are Made For Rain
TTITLE5=Try (A Little Harder)
TTITLE6=Beautiful Night
TTITLE7=My Precious Star
TTITLE8=Why Should I Fall In Love
TTITLE9=Use Me
TTITLE10=For The Good Times
TTITLE11=In Your Eyes
TTITLE12=Crying In The Chapel
EXTD=
EXTT0=
EXTT1=
EXTT2=
EXTT3=
EXTT4=
EXTT5=
EXTT6=
EXTT7=
EXTT8=
EXTT9=
EXTT10=
EXTT11=
EXTT12=
PLAYORDER=
